<svg width="35" height="35" viewBox="0 0 35 35" fill="none" xmlns="http://www.w3.org/2000/svg">
<g clip-path="url(#clip0_41_32)">
<path d="M22.5381 0.109401C21.5879 0.2803 20.5488 0.7178 19.79 1.25784C19.2773 1.62698 18.4912 2.43362 18.1357 2.95315L17.8145 3.418H17.1309C15.5723 3.42483 13.7539 3.80081 12.1543 4.45706L11.4912 4.72366L11.0674 4.37503C10.2744 3.71194 9.47461 3.418 8.47656 3.418C7.36231 3.418 6.47363 3.7803 5.70117 4.54592C4.35449 5.8926 4.14258 7.91604 5.19531 9.52932L5.50293 10.0078L4.94922 11.1016C4.1084 12.7764 3.65723 14.3145 3.47266 16.1123L3.39063 16.9532H2.67969C1.89355 16.9532 1.60645 17.0557 1.33301 17.418C1.19629 17.5957 1.19629 17.7256 1.17578 23.461L1.16211 29.3194L0.888672 29.3946C0.553711 29.4834 0.211914 29.7637 0.0957031 30.0576C0.0341797 30.2012 0 30.5567 0 31.0557C0 32.0196 0.129883 32.3477 0.615234 32.5869C0.902344 32.7373 0.998047 32.7442 2.33105 32.7442H3.74609L4.06738 33.2227C5.61914 35.5537 9.07129 35.5811 10.5684 33.2637L10.9033 32.751H14.123L17.3359 32.7442L17.4453 32.9629C17.7939 33.6944 18.8193 34.5283 19.708 34.8086C20.3506 35.0137 21.4512 35.0274 22.0117 34.836C22.9551 34.5215 23.8848 33.7901 24.2676 33.0723L24.4316 32.751L25.3955 32.7305C26.332 32.71 26.373 32.7032 26.6123 32.5186C27.0361 32.1973 27.0703 32.0606 27.0703 30.8506C27.0703 29.9073 27.0498 29.6748 26.8857 29.0049L26.7012 28.2393L27.4873 27.4326C27.918 26.9883 28.417 26.4346 28.6016 26.2022L28.9365 25.7715L29.9893 27.1797C30.5703 27.9522 31.0693 28.5606 31.1035 28.5332C31.4658 28.1299 34.4805 23.9873 34.6172 23.6934C35.3281 22.1895 35.0137 20.4326 33.8105 19.2364C33.2773 18.7032 32.6074 18.3203 31.958 18.1768L31.582 18.0948V17.2198C31.582 15.1553 31.0557 13.0703 30.0439 11.0948L29.6133 10.2539L29.8867 9.63186C30.3311 8.5928 30.4473 7.99807 30.4473 6.7676C30.4404 5.59866 30.3447 5.12014 29.9346 4.13577C28.7451 1.27151 25.5938 -0.44431 22.5381 0.109401ZM25.0605 1.29885C26.9883 1.78421 28.5264 3.26077 29.1348 5.19534C29.2715 5.63968 29.292 5.84475 29.292 6.7676C29.292 8.83889 29.1689 9.07815 26.0791 13.0225C24.8008 14.6494 23.7344 15.9824 23.707 15.9756C23.6729 15.9619 20.2617 11.6485 19.2637 10.3496C17.5615 8.13479 17.6982 4.96975 19.5713 2.95999C20.3848 2.09182 21.2324 1.58596 22.3877 1.29202C23.0781 1.12112 24.3496 1.12112 25.0605 1.29885ZM9.60449 4.77151C10.1035 5.01077 10.6504 5.48245 10.8965 5.90628C11.3203 6.63089 11.3955 7.66311 11.0674 8.40823C10.9785 8.61331 10.3564 9.51565 9.68652 10.4112L8.46973 12.0449L7.21875 10.3701C6.50098 9.41311 5.91309 8.55862 5.83789 8.36721C5.74219 8.11428 5.70801 7.85452 5.70801 7.31448C5.70801 6.63772 5.72168 6.56253 5.93359 6.1387C6.17969 5.63284 6.61719 5.14749 7.06836 4.88772C7.80664 4.45706 8.81836 4.40921 9.60449 4.77151ZM17.2676 4.66214C16.6934 6.58987 16.9053 8.63382 17.8555 10.2676C18.0469 10.5957 22.1416 15.9073 23.6865 17.8282C23.7002 17.8418 24.835 16.4131 26.2158 14.6494C27.5967 12.8926 28.7725 11.4092 28.8203 11.3545C28.8955 11.2657 28.957 11.3545 29.2305 11.9356C30.0303 13.6514 30.4883 15.6748 30.4883 17.4932V18.1016L30.1328 18.1836C27.3916 18.8194 26.2022 22.169 27.9248 24.418C28.0547 24.5957 28.1641 24.7803 28.1641 24.8282C28.1641 24.9512 27.3984 25.9082 26.8379 26.503C26.5234 26.8379 26.3867 26.9405 26.3594 26.8653C26.3389 26.8106 26.0176 25.5323 25.6416 24.0352C24.876 20.9795 24.8555 20.918 24.1924 20.5489L23.8232 20.3369L20.9385 20.3164L18.0469 20.2959V19.0108C18.0469 17.7871 18.04 17.7119 17.8896 17.4932C17.8076 17.3701 17.6299 17.1924 17.5068 17.1104L17.2744 16.9532H10.9307C7.44434 16.9532 4.57324 16.9326 4.55957 16.8985C4.51172 16.8096 4.6416 15.6407 4.79199 14.9024C5.02441 13.7266 5.57813 12.1953 6.09766 11.293L6.26856 10.9991L7.34863 12.4414C7.94336 13.2344 8.45606 13.8701 8.4834 13.8633C8.59961 13.8223 11.7715 9.52249 11.9629 9.15335C12.4277 8.24417 12.5371 7.11624 12.2432 6.22073C12.168 5.97464 12.0996 5.75589 12.0996 5.72854C12.0996 5.65335 13.4668 5.14065 14.1504 4.95608C14.9844 4.73733 16.1738 4.55276 17.0146 4.52542C17.2949 4.51175 17.3086 4.51858 17.2676 4.66214ZM6.78125 20.2002L6.80176 22.3535L8.18945 21.6494L9.57031 20.9522L10.9717 21.6563C11.7441 22.0391 12.3867 22.3535 12.4072 22.3535C12.4277 22.3535 12.4414 21.3828 12.4414 20.2002V18.0469H14.6973H16.9531V23.6866V29.3262H13.9316H10.9033L10.6709 28.9502C9.58399 27.2207 7.37598 26.6192 5.53711 27.5489C5.33203 27.6514 5.01758 27.8565 4.83984 28.0069C4.49121 28.2871 3.93066 28.9776 3.8623 29.1963C3.82129 29.3125 3.75293 29.3262 3.03516 29.3262H2.25586V23.6866V18.0469H4.51172H6.76758L6.78125 20.2002ZM11.2793 19.2774C11.2793 19.9541 11.2656 20.5078 11.2451 20.5078C11.2246 20.5078 10.8486 20.3301 10.4043 20.1045L9.60449 19.7012L8.81836 20.1045C8.3877 20.3233 8.01172 20.501 7.98438 20.501C7.9502 20.5078 7.92969 19.9541 7.92969 19.2774V18.0469H9.60449H11.2793V19.2774ZM32.2861 19.503C32.8809 19.7969 33.3184 20.2344 33.6123 20.836C33.79 21.1983 33.8037 21.2871 33.8037 22.0117C33.8037 22.6612 33.7764 22.8526 33.6602 23.1055C33.4893 23.4746 31.1104 26.6739 31.0283 26.6465C30.9941 26.6328 30.4336 25.9014 29.7705 25.0196C28.4648 23.2696 28.3076 22.9688 28.2461 22.169C28.1709 21.041 28.8408 19.9268 29.873 19.4619C30.3447 19.25 30.543 19.2158 31.1855 19.2295C31.7119 19.25 31.835 19.2774 32.2861 19.503ZM23.748 21.6153C23.8506 21.711 23.96 21.9229 24.0215 22.1621L24.1172 22.5586H22.709C20.9385 22.5586 20.6924 22.6475 20.4053 23.3311C20.2891 23.6182 20.2617 24.7803 20.3711 25.1494C20.4395 25.3887 20.7061 25.7237 20.9521 25.8604C21.041 25.9151 21.7383 25.9561 23.0303 25.9766L24.9785 26.0108L25.375 27.583C25.5869 28.4444 25.7715 29.1963 25.7715 29.2373C25.7715 29.3057 25.5938 29.3262 25.1084 29.3262H24.4385L24.2334 28.9776C23.7754 28.2051 22.8525 27.5147 21.9023 27.2344C21.335 27.0635 20.3369 27.0772 19.7559 27.2686C19.2773 27.419 18.6006 27.7949 18.3135 28.0684C18.2178 28.1573 18.1221 28.2324 18.0947 28.2324C18.0674 28.2324 18.0469 26.708 18.0469 24.8487V21.4649H20.8086H23.5772L23.748 21.6153ZM24.4316 23.8369C24.4522 23.9053 24.5 24.0967 24.541 24.2676C24.582 24.4385 24.6299 24.6299 24.6504 24.6914C24.6846 24.8076 24.5752 24.8145 23.0781 24.8145H21.4648V24.2676V23.7207H22.9277C24.2676 23.7207 24.3975 23.7344 24.4316 23.8369ZM8.49023 28.4854C9.93945 29.1758 10.541 30.7959 9.88477 32.2315C9.64551 32.7578 9.09863 33.3116 8.55176 33.585C8.12793 33.7901 8.05957 33.8037 7.34863 33.8037C6.65137 33.8037 6.5625 33.7901 6.14551 33.5918C4.34082 32.7373 3.97168 30.3311 5.44141 28.9912C6.05664 28.4307 6.64453 28.2188 7.49902 28.2598C7.94336 28.2803 8.14844 28.3282 8.49023 28.4854ZM22.0391 28.4922C23.208 29.0391 23.8848 30.2901 23.6592 31.4864C23.4883 32.4229 22.9346 33.168 22.0938 33.5782C21.6631 33.7901 21.6016 33.8037 20.8838 33.8037C20.207 33.8037 20.0908 33.7832 19.7354 33.6192C18.9082 33.2295 18.2725 32.4092 18.1084 31.5C17.9033 30.3721 18.5117 29.1348 19.5371 28.5879C20.084 28.294 20.3711 28.2324 21.0342 28.2598C21.4854 28.2803 21.6836 28.3282 22.0391 28.4922ZM3.41797 31.0352V31.5821H2.29004H1.16211V31.0352V30.4883H2.29004H3.41797V31.0352ZM16.9531 31.0352V31.5821H14.1162H11.2793V31.0352V30.4883H14.1162H16.9531V31.0352ZM25.9766 31.0352V31.5821H25.3955H24.8145V31.0352V30.4883H25.3955H25.9766V31.0352Z" fill="#FA5F0B"/>
<path d="M22.7977 2.35842C21.2049 2.70705 19.9744 3.8008 19.4344 5.34572C19.1951 6.01565 19.1473 7.01369 19.3113 7.75197C19.5984 9.04397 20.5213 10.2334 21.6834 10.794C22.7908 11.334 23.9803 11.416 25.1355 11.0469C27.2479 10.3633 28.5672 8.12112 28.1365 5.94729C27.6443 3.45901 25.2107 1.82522 22.7977 2.35842ZM25.1766 3.74612C26.366 4.33401 27.0701 5.46194 27.0701 6.76076C27.0701 7.36233 26.9607 7.8135 26.6941 8.33303C26.4754 8.77737 25.9422 9.35158 25.5047 9.63186C23.8436 10.6983 21.5604 10.0489 20.6854 8.26467C19.9197 6.6924 20.4256 4.90822 21.909 3.92385C22.5105 3.52053 22.948 3.41115 23.8367 3.4385C24.5818 3.45901 24.6229 3.47268 25.1766 3.74612Z" fill="#FA5F0B"/>
<path d="M7.82048 5.76956C7.51286 5.90627 7.12322 6.27541 6.96599 6.5762C6.54216 7.41018 6.87029 8.38772 7.71794 8.83206C8.82536 9.41311 10.1447 8.59963 10.1447 7.34866C10.1447 6.62405 9.67302 5.94729 9.03044 5.75588C8.68181 5.64651 8.08708 5.66018 7.82048 5.76956ZM8.74333 6.87014C9.33806 7.17776 8.9074 8.07327 8.27165 7.85452C7.89568 7.7178 7.79997 7.23245 8.10075 6.9385C8.29216 6.74026 8.46989 6.72659 8.74333 6.87014Z" fill="#FA5F0B"/>
<path d="M13.5352 15.2441V15.791H14.1162H14.6973V15.2441V14.6973H14.1162H13.5352V15.2441Z" fill="#FA5F0B"/>
<path d="M15.791 15.2441V15.791H16.3721H16.9531V15.2441V14.6973H16.3721H15.791V15.2441Z" fill="#FA5F0B"/>
<path d="M18.0469 15.2441V15.791H18.6279H19.209V15.2441V14.6973H18.6279H18.0469V15.2441Z" fill="#FA5F0B"/>
<path d="M30.502 20.4327C29.1006 20.9248 28.9776 22.8389 30.2969 23.5225C31.6163 24.1993 33.1407 22.8731 32.6416 21.4717C32.334 20.5899 31.3702 20.1182 30.502 20.4327ZM31.4043 21.6084C31.5342 21.711 31.5821 21.8067 31.5821 21.9981C31.5821 22.5108 31.0147 22.75 30.6592 22.3877C30.1602 21.8955 30.8506 21.1709 31.4043 21.6084Z" fill="#FA5F0B"/>
<path d="M6.98633 29.4014C6.20703 29.5518 5.68066 30.2217 5.67383 31.0557C5.67383 31.5273 5.80371 31.876 6.10449 32.1836C6.93848 33.0518 8.29883 32.8535 8.83887 31.794C9.46777 30.5361 8.38086 29.1279 6.98633 29.4014ZM7.64258 30.5977C7.86133 30.7481 7.93652 30.9873 7.85449 31.2402C7.71777 31.6162 7.23242 31.7119 6.93848 31.4111C6.47363 30.9531 7.10938 30.2217 7.64258 30.5977Z" fill="#FA5F0B"/>
<path d="M20.5623 29.3945C20.4188 29.4219 20.159 29.5312 19.9813 29.6406C18.9012 30.3105 18.9764 31.9512 20.1248 32.5596C20.5213 32.7646 21.2527 32.7646 21.6424 32.5596C22.2166 32.252 22.5584 31.6777 22.5584 31.0078C22.5584 29.9961 21.574 29.1963 20.5623 29.3945ZM21.2733 30.6934C21.4442 30.8711 21.4715 30.9395 21.4373 31.124C21.3348 31.6504 20.6443 31.7666 20.4051 31.3018C20.2615 31.0283 20.2752 30.9121 20.5008 30.6865C20.7674 30.4268 21.0067 30.4268 21.2733 30.6934Z" fill="#FA5F0B"/>
</g>
<defs>
<clipPath id="clip0_41_32">
<rect width="35" height="35" fill="white"/>
</clipPath>
</defs>
</svg>
