<svg width="35" height="35" viewBox="0 0 35 35" fill="none" xmlns="http://www.w3.org/2000/svg">
<path d="M4.91505 3.34961C3.65723 4.29297 2.59766 5.11328 2.54981 5.18164C2.49512 5.25684 2.33106 7.69043 2.05079 12.5645C1.66798 19.2021 1.64063 19.8447 1.73634 19.9951C1.81153 20.1113 2.00977 20.207 2.44044 20.3369C4.0879 20.8359 4.37501 20.9316 4.37501 20.9863C4.37501 21.0205 4.25196 22.5723 4.10157 24.4385C3.95118 26.3047 3.82813 27.8906 3.82813 27.9658C3.82813 28.041 3.90333 28.1777 3.99903 28.2666L4.16309 28.4375H10.3154H16.4609L16.2832 27.8906L16.1055 27.3438H13.5215H10.9375V19.7354L10.9443 12.1338L12.8926 9.84375C13.9658 8.58594 14.8887 7.47168 14.9434 7.36914C15.0801 7.10938 15.0664 6.97266 14.875 6.69922L14.7178 6.4668L15.2031 6.16602C15.7432 5.83789 15.8594 5.72168 15.8594 5.49609C15.8594 5.41406 15.709 5.00391 15.5176 4.58691C15.333 4.16309 15.2168 3.84863 15.2647 3.87598C15.3125 3.90332 15.8936 4.33398 16.5566 4.83301L17.7598 5.73535L17.8008 6.09766C17.8213 6.2959 17.9922 9.18066 18.1836 12.5029C18.375 15.832 18.5322 18.5596 18.5459 18.5664C18.5527 18.5732 18.7852 18.3887 19.0586 18.1631C19.4688 17.8145 19.5508 17.7051 19.5508 17.5342C19.5508 17.4248 19.3936 14.6221 19.2022 11.3135C18.9766 7.32812 18.833 5.25684 18.7783 5.18164C18.7305 5.11328 17.6709 4.29297 16.4131 3.34961L14.1299 1.64062H10.6641H7.19825L4.91505 3.34961ZM13.002 3.00781L12.8857 3.28125H10.6846H8.47657L8.33985 3.00781L8.20313 2.73438H10.6572H13.1182L13.002 3.00781ZM8.67481 6.47363C9.65235 8.70215 9.85059 9.20117 9.83009 9.42676L9.80958 9.69336L8.85255 8.59961C8.32618 8.00488 7.81348 7.41016 7.71094 7.28711L7.52637 7.06836L7.72462 6.76074C8.08692 6.2207 7.99122 6.01562 7.18458 5.53711L6.7129 5.25684L7.04786 4.49805C7.23243 4.08105 7.38282 3.72559 7.38282 3.70508C7.38282 3.56152 7.62891 4.08789 8.67481 6.47363ZM14.2803 4.49121L14.6152 5.25684L14.1436 5.53711C13.3301 6.01562 13.2412 6.2207 13.6035 6.76758C13.7744 7.02051 13.7881 7.08887 13.7129 7.17773C13.665 7.23242 13.0498 7.96387 12.3457 8.79785C11.2383 10.1035 10.8828 10.5068 11.0332 10.2676C11.0469 10.2402 11.6621 8.83203 12.3936 7.14355C13.9248 3.60938 13.8906 3.68457 13.918 3.71191C13.9316 3.71875 14.0889 4.07422 14.2803 4.49121ZM5.81055 4.58691C5.61915 5.00391 5.46876 5.40723 5.46876 5.48242C5.46876 5.72168 5.5918 5.8584 6.08399 6.14551C6.34376 6.30273 6.56251 6.45312 6.56251 6.48047C6.56251 6.50781 6.50098 6.61719 6.42579 6.7334C6.35059 6.84277 6.28907 7.02051 6.28907 7.12305C6.28907 7.32129 6.33692 7.38281 8.66798 10.0488L9.83692 11.3818L9.84376 19.3594V27.3438H7.417C5.1543 27.3438 4.99024 27.3369 4.99024 27.2207C4.99024 27.0225 5.33204 22.6064 5.37305 22.374L5.40723 22.1553L6.8086 22.1348C8.20997 22.1143 8.2168 22.1143 8.35352 21.9434C8.45606 21.8203 8.47657 21.7178 8.44923 21.54C8.38087 21.1025 8.34669 21.0889 6.82911 21.0684L5.45509 21.0479L5.4961 20.6582C5.52344 20.4463 5.70802 18.1494 5.91309 15.5654C6.30274 10.6572 6.30274 10.6982 6.02247 10.4795C5.84473 10.3428 5.54395 10.377 5.37305 10.5479C5.18165 10.7393 5.21583 10.4316 4.80567 15.5996C4.53223 19.1406 4.46387 19.7559 4.37501 19.7559C4.32032 19.7559 3.93751 19.6465 3.52052 19.5234L2.76856 19.291L2.78907 18.9629C2.95997 15.75 3.50001 6.36426 3.52735 6.09766L3.56837 5.73535L4.83302 4.78516C5.53712 4.25879 6.11134 3.82812 6.12501 3.82812C6.13868 3.82812 5.99512 4.16992 5.81055 4.58691ZM12.3389 4.49121C12.0313 5.31836 10.6982 8.26465 10.6572 8.22363C10.6231 8.18262 9.32423 5.28418 8.97559 4.45703C8.94825 4.39551 9.31055 4.375 10.6641 4.375C12.2774 4.375 12.3867 4.38184 12.3389 4.49121Z" fill="#FA5F0B"/>
<path d="M15.21 10.5615C15.0254 10.7393 15.0117 10.8555 15.0938 11.7715L15.1416 12.2979L13.8564 12.3184C12.5918 12.3389 12.5645 12.3457 12.4346 12.5029C12.2705 12.708 12.2705 12.9951 12.4346 13.2002C12.5645 13.3643 12.5918 13.3643 13.9043 13.3848C14.6699 13.3984 15.2441 13.4326 15.2441 13.4668C15.2441 13.6035 15.791 20.3574 15.8252 20.6924L15.8662 21.0479L14.4922 21.0684C13.1387 21.0889 13.1113 21.0889 12.9814 21.2529C12.8174 21.458 12.8174 21.7451 12.9814 21.9502C13.1113 22.1143 13.1387 22.1143 14.5127 22.1348L15.9141 22.1553L15.9551 22.3672C15.9756 22.4834 15.9961 22.7363 16.0029 22.9277L16.0098 23.2764L16.1396 22.832C16.4609 21.7588 16.9189 20.7471 17.4248 19.9951C17.5752 19.7764 17.6914 19.585 17.6777 19.5713C17.6641 19.5576 17.5273 19.5986 17.3633 19.6533C16.9258 19.8105 16.8164 19.79 16.8164 19.5645C16.8164 19.4619 16.6592 17.4795 16.4746 15.1553C16.2832 12.8379 16.1328 10.8965 16.1328 10.8418C16.1328 10.7939 16.0576 10.6709 15.9619 10.5684C15.7432 10.3359 15.4355 10.3291 15.21 10.5615Z" fill="#FA5F0B"/>
<path d="M11.7784 14.834C11.4777 14.9571 11.3888 15.3877 11.6144 15.6612C11.7989 15.8936 12.2638 15.8867 12.4552 15.6543C12.6056 15.4697 12.5919 15.0869 12.4278 14.9229C12.3048 14.8067 11.963 14.752 11.7784 14.834Z" fill="#FA5F0B"/>
<path d="M23.7207 17.0899C22.0732 17.3975 20.706 18.0947 19.5166 19.2227C17.5342 21.1094 16.6455 23.6865 17.0488 26.3867C17.4111 28.7656 18.8808 30.96 20.9385 32.1768C25.8193 35.0684 31.9306 32.3819 33.2021 26.7832C33.3662 26.0381 33.3525 24.3633 33.1748 23.5156C32.6211 20.9727 31.0556 18.9492 28.7314 17.7803C27.2754 17.0557 25.3408 16.7822 23.7207 17.0899ZM26.2842 18.1494C27.8359 18.4024 29.1758 19.1133 30.29 20.2822C31.4316 21.4854 32.0332 22.8047 32.2109 24.5274C32.3476 25.8399 32.1084 27.1045 31.5 28.335C30.8301 29.668 29.668 30.8301 28.3349 31.5C24.2334 33.5508 19.3662 31.2813 18.2314 26.7969C18.0127 25.9356 18.0195 24.2676 18.2383 23.4473C18.4707 22.5996 18.751 21.9639 19.2295 21.2461C20.7607 18.9151 23.5224 17.6983 26.2842 18.1494Z" fill="#FA5F0B"/>
<path d="M22.8662 20.4053C22.5108 20.7539 22.7637 21.3281 23.2764 21.3281H23.5157V23.1738V25.0127L22.3399 26.7422C21.6973 27.6924 21.1368 28.5811 21.1026 28.7109C20.9659 29.2168 21.2393 29.7842 21.7178 29.9824C22.0459 30.1191 28.2666 30.1191 28.5948 29.9824C29.0733 29.7842 29.3467 29.2168 29.21 28.7109C29.1758 28.5811 28.6153 27.6924 27.9727 26.7422L26.7969 25.0127V23.1738V21.3281H27.0362C27.3506 21.3281 27.6172 21.0752 27.6172 20.7812C27.6172 20.6514 27.5557 20.5078 27.4463 20.4053L27.2823 20.2344H25.1563H23.0303L22.8662 20.4053ZM25.7032 23.3105C25.7032 24.958 25.7237 25.334 25.8057 25.498L25.9151 25.7031H25.1563C24.7461 25.7031 24.4043 25.6826 24.4043 25.6484C24.4043 25.6211 24.4522 25.5391 24.5069 25.4707C24.5889 25.3613 24.6094 24.9854 24.6094 23.3311V21.3281H25.1563H25.7032V23.3105ZM27.4327 27.8906L28.1709 28.9844H25.1563H22.1416L22.8799 27.8906L23.6182 26.8037H25.1563H26.6944L27.4327 27.8906Z" fill="#FA5F0B"/>
<path d="M25.9972 27.1387C25.6964 27.2617 25.6075 27.6924 25.8331 27.9658C26.0177 28.1983 26.4825 28.1914 26.6739 27.959C26.8243 27.7744 26.8107 27.3916 26.6466 27.2276C26.5236 27.1114 26.1818 27.0567 25.9972 27.1387Z" fill="#FA5F0B"/>
<path d="M24.0831 27.6856C23.7823 27.8086 23.6935 28.2393 23.9191 28.5127C24.1036 28.7451 24.5685 28.7383 24.7599 28.5059C24.9103 28.3213 24.8966 27.9385 24.7325 27.7744C24.6095 27.6582 24.2677 27.6035 24.0831 27.6856Z" fill="#FA5F0B"/>
<path d="M11.7784 17.5684C11.4777 17.6914 11.3888 18.1221 11.6144 18.3955C11.7989 18.628 12.2638 18.6211 12.4552 18.3887C12.6056 18.2041 12.5919 17.8213 12.4278 17.6572C12.3048 17.541 11.963 17.4864 11.7784 17.5684Z" fill="#FA5F0B"/>
<path d="M11.7784 20.3028C11.4777 20.4258 11.3888 20.8565 11.6144 21.1299C11.7989 21.3623 12.2638 21.3555 12.4552 21.1231C12.6056 20.9385 12.5919 20.5557 12.4278 20.3916C12.3048 20.2754 11.963 20.2207 11.7784 20.3028Z" fill="#FA5F0B"/>
<path d="M11.7784 23.0371C11.4777 23.1602 11.3888 23.5908 11.6144 23.8643C11.7989 24.0967 12.2638 24.0899 12.4552 23.8574C12.6056 23.6729 12.5919 23.2901 12.4278 23.126C12.3048 23.0098 11.963 22.9551 11.7784 23.0371Z" fill="#FA5F0B"/>
</svg>
