<svg width="35" height="35" viewBox="0 0 35 35" fill="none" xmlns="http://www.w3.org/2000/svg">
<g clip-path="url(#clip0_41_28)">
<path d="M2.31065 1.24412C2.22179 2.35154 2.22179 2.50193 2.31065 2.55662C3.47276 3.24021 4.45714 6.64451 3.83507 7.84764C3.66417 8.1826 3.38389 8.38084 2.46104 8.81834L1.84581 9.11912V9.46092C1.84581 9.65233 1.55186 15.333 1.20323 22.0801C0.847762 28.8271 0.574324 34.3711 0.594832 34.3984C0.608504 34.4326 4.23839 34.4531 8.66124 34.4531H16.7003L16.6593 33.8174C16.6319 33.4756 16.5909 32.6894 16.5704 32.0742L16.5226 30.9668H18.8946H21.2667L21.3829 31.1787C21.9435 32.2109 22.8595 33.2568 23.6661 33.79C24.9855 34.6582 26.3732 35.0547 27.8565 34.9795C32.8468 34.7265 35.9161 29.5107 33.7013 25.0537C32.7374 23.1123 30.9396 21.7588 28.7862 21.3486L28.1642 21.2324V18.792V16.3515L28.3898 16.2763C28.506 16.2422 29.3331 15.9892 30.2149 15.7226C31.2198 15.415 31.8761 15.1758 31.9786 15.0869L32.129 14.9502V12.2637C32.129 10.7871 32.1085 9.52928 32.088 9.46776C31.9718 9.16697 31.9103 9.16014 27.3165 9.16014H22.9757L22.7843 9.3242C22.5997 9.48143 22.5929 9.52244 22.5519 10.2334C22.5245 10.876 22.4903 11.04 22.2989 11.4365C22.005 12.0722 21.4991 12.5918 20.8565 12.9062C20.3575 13.1523 20.3233 13.1592 19.5919 13.1592C18.8605 13.1592 18.8126 13.1523 18.3204 12.9131C17.5138 12.5234 16.9327 11.8603 16.7003 11.0742C16.6388 10.8691 16.5841 10.4248 16.5773 10.0898C16.5704 9.51561 16.5567 9.47459 16.379 9.3242C16.2355 9.19432 16.1124 9.16014 15.839 9.16014C15.5587 9.16014 15.3468 9.09178 14.8341 8.84568C14.4786 8.67479 14.0411 8.44236 13.8634 8.33299C13.3028 7.97068 13.1183 7.33494 13.255 6.24803C13.4737 4.58689 14.089 3.13768 14.7794 2.6865C15.046 2.50877 15.0528 2.4951 15.0118 2.18748C14.9913 2.01658 14.9435 1.45603 14.8956 0.936503L14.8136 -2.00272e-05H13.3507H11.881L11.6007 0.239238C10.9103 0.827128 9.94639 1.11424 8.61339 1.11424C7.29405 1.11424 6.3712 0.8408 5.62608 0.232402L5.34581 -2.00272e-05H3.88292H2.42003L2.31065 1.24412ZM5.21593 1.36033C6.47374 2.21482 8.60655 2.5156 10.3702 2.0781C10.9103 1.94822 11.7511 1.57908 12.0792 1.32615C12.2911 1.16893 12.339 1.15525 13.0362 1.17576L13.7745 1.19627L13.795 1.55857C13.8155 1.89353 13.795 1.94139 13.5079 2.31053C12.8312 3.17185 12.2159 4.90135 12.1134 6.25486L12.0655 6.8701L9.21495 6.8906L6.35753 6.90428V7.48533V8.06639H9.29698H12.2364L12.38 8.3535C12.462 8.51756 12.6329 8.76365 12.7696 8.90037L13.0157 9.16014H9.93272C8.05284 9.16014 6.77452 9.18748 6.66514 9.2285C6.30968 9.36522 6.28917 9.54295 6.28917 12.2226C6.28917 13.7129 6.31651 14.7588 6.35753 14.875C6.39854 14.9844 6.48741 15.1142 6.56261 15.1553C6.63096 15.2031 7.62218 15.4902 8.76378 15.791C9.90538 16.0986 10.8487 16.3652 10.8624 16.3789C10.8829 16.3994 10.9103 19.6191 10.9239 23.5361C10.9513 30.625 10.9513 30.6592 11.0948 30.8096C11.2316 30.9668 11.2452 30.9668 13.2687 30.9668C14.3898 30.9668 15.3194 30.9873 15.3331 31.0146C15.3536 31.0488 15.3878 31.5683 15.4151 32.1767L15.4698 33.291H8.61339H1.75694L1.79796 32.6553C1.81847 32.3135 2.08507 27.1387 2.39268 21.1572C2.7003 15.1758 2.96007 10.1855 2.98057 10.0625C3.00792 9.87108 3.06944 9.81639 3.50011 9.59764C5.03819 8.82518 5.46886 7.56053 4.97667 5.27049C4.71007 4.01951 4.33409 3.11033 3.75987 2.35838C3.41807 1.90721 3.37706 1.77732 3.45909 1.374L3.50694 1.16209H4.21788C4.8878 1.16209 4.94932 1.17576 5.21593 1.36033ZM15.4698 10.917C15.7433 12.4209 16.8028 13.6513 18.2521 14.1572C18.8536 14.3623 19.8858 14.4101 20.5353 14.2597C21.9776 13.918 23.2765 12.6328 23.6183 11.2041C23.673 10.9648 23.7208 10.664 23.7208 10.541V10.3222H27.3439H30.9669V12.291V14.2666L29.6886 14.6562C28.9776 14.8681 28.3487 15.0596 28.2872 15.0801C28.1778 15.1142 28.1642 15.0527 28.1642 14.5127C28.1642 13.6855 28.0821 13.4121 27.7882 13.289C27.5216 13.1797 27.3165 13.2344 27.1046 13.4668C26.9747 13.6103 26.9747 13.7265 26.9747 17.4316V21.2461L26.5987 21.2939C25.6485 21.4101 24.3976 21.916 23.5499 22.5244C22.9689 22.9414 22.1554 23.8027 21.7452 24.4385C20.795 25.915 20.4601 27.7812 20.8224 29.5859L20.8702 29.8047H16.4884H12.1134L12.086 21.7178C12.0655 15.5996 12.045 13.6035 11.9767 13.4941C11.8741 13.3027 11.5255 13.1797 11.3273 13.2549C10.9923 13.3847 10.9444 13.5215 10.9239 14.3691L10.9034 15.1553L9.19444 14.7041L7.48546 14.2461L7.46495 12.373C7.45811 11.3408 7.46495 10.459 7.48546 10.4111C7.50596 10.3428 8.33995 10.3222 11.4366 10.3222H15.3605L15.4698 10.917ZM28.9776 22.5654C32.1632 23.3721 34.0157 26.7422 33.004 29.873C32.423 31.6777 30.9327 33.1133 29.1075 33.6396C28.3898 33.8447 27.2003 33.8926 26.4483 33.7422C23.6456 33.168 21.6427 30.584 21.8341 27.7744C22.0255 25.0263 24.0899 22.7978 26.8106 22.4219C27.3917 22.3398 28.3487 22.4082 28.9776 22.5654Z" fill="#FA5F0B"/>
<path d="M29.5039 24.8281C29.3809 24.9375 29.0322 25.7373 28.3281 27.4941C27.7813 28.8818 27.3164 30.0098 27.2959 30.0098C27.2754 30.0098 26.7627 29.6133 26.1543 29.1279C24.6982 27.9658 24.6982 27.9726 24.3428 28.2734C24.0967 28.4785 24.0557 28.8135 24.2539 29.0391C24.4522 29.2715 27.2207 31.4521 27.3916 31.5205C27.501 31.5615 27.624 31.5478 27.7813 31.4863C28 31.3975 28.0479 31.2949 29.2168 28.376C29.8799 26.7148 30.4199 25.2861 30.4199 25.1904C30.4199 24.9443 30.1328 24.6777 29.8799 24.6777C29.7637 24.6777 29.5996 24.7461 29.5039 24.8281Z" fill="#FA5F0B"/>
</g>
<defs>
<clipPath id="clip0_41_28">
<rect width="35" height="35" fill="white"/>
</clipPath>
</defs>
</svg>
