<svg width="35" height="35" viewBox="0 0 35 35" fill="none" xmlns="http://www.w3.org/2000/svg">
<g clip-path="url(#clip0_41_23)">
<path d="M10.7324 0.854492C9.50872 1.3125 8.45599 1.73633 8.39446 1.78418C8.25774 1.89355 4.43646 11.1426 4.3886 11.4639C4.33392 11.9014 4.44329 11.9424 6.9931 12.5098L9.29681 13.0156V15.9072V18.8057L9.46771 18.9697C9.68646 19.1953 10.0009 19.1953 10.2197 18.9697L10.3906 18.8057V13.3984V7.99121L10.2197 7.82715C10.1171 7.71777 9.97357 7.65625 9.84368 7.65625C9.7138 7.65625 9.57024 7.71777 9.46771 7.82715L9.29681 7.99121V9.94629C9.29681 11.0195 9.28997 11.8945 9.28314 11.8945C9.26946 11.8945 8.46282 11.71 7.48528 11.4912C6.14544 11.1904 5.71478 11.0674 5.72845 10.999C5.75579 10.876 9.08489 2.78223 9.15325 2.67969C9.1806 2.63867 9.96673 2.31055 10.9033 1.96191L12.6122 1.31934L12.7011 1.63379C13.0839 2.98047 13.6855 3.85547 14.7245 4.58691C16.1464 5.5918 18.1493 5.73535 19.7011 4.94922C20.2001 4.69629 20.3163 4.31348 19.995 3.99902C19.7831 3.78027 19.5644 3.78711 19.1406 3.99902C17.3359 4.91504 14.9706 4.08789 14.0888 2.23535C13.9452 1.92773 13.8085 1.59961 13.788 1.51074C13.7538 1.37402 13.7743 1.36035 13.8974 1.3877C15.914 1.83203 15.7226 1.80469 17.4999 1.80469C19.0654 1.80469 19.2294 1.79785 20.0292 1.62012C20.5009 1.51758 20.9589 1.41504 21.0478 1.39453C21.205 1.34668 21.2118 1.36035 21.164 1.57227C21.1435 1.70215 21.0478 1.96875 20.9521 2.17383C20.6581 2.80957 20.7538 3.1582 21.246 3.25391C21.4238 3.28809 21.4921 3.26074 21.6562 3.10352C21.8408 2.91211 22.1142 2.29004 22.2988 1.63379L22.3876 1.31934L24.0624 1.95508C24.9853 2.30371 25.7577 2.59766 25.7851 2.61133C25.8329 2.63184 29.2167 10.7871 29.2714 10.999C29.2851 11.0742 28.9228 11.1836 27.7197 11.4502C26.8583 11.6416 26.0449 11.8193 25.9286 11.8467L25.7031 11.8877V9.93945V7.99121L25.5322 7.82715C25.3134 7.60156 24.999 7.60156 24.7802 7.82715L24.6093 7.99121V13.9453V19.8994L24.7802 20.0635C24.999 20.2891 25.3134 20.2891 25.5322 20.0635L25.7031 19.8994V16.4541V13.0156L28.0136 12.5098C30.4609 11.9697 30.6249 11.9082 30.6249 11.5322C30.6249 11.3545 26.7626 1.92773 26.6396 1.79785C26.5439 1.69531 22.0458 0 21.8749 0C21.8134 0 21.499 0.0888672 21.1708 0.198242C18.874 0.977539 16.0712 0.963867 13.747 0.170898C13.4667 0.0751953 13.1728 0 13.0976 0.00683594C13.0156 0.0136719 11.956 0.389648 10.7324 0.854492Z" fill="#FA5F0B"/>
<path d="M12.749 7.82715L12.5781 7.99121V12.5781V17.165L12.749 17.3291L12.9131 17.5H17.5H22.0869L22.251 17.3291L22.4219 17.165V12.5781V7.99121L22.251 7.82715L22.0869 7.65625H17.5H12.9131L12.749 7.82715ZM21.3281 12.5781V16.4062H17.5H13.6719V12.5781V8.75H17.5H21.3281V12.5781Z" fill="#FA5F0B"/>
<path d="M12.5303 18.6895C12.373 18.7442 12.0928 18.8672 11.915 18.9698C11.5527 19.1817 3.75293 26.9063 3.58203 27.2207C3.52734 27.3233 3.48633 27.4737 3.48633 27.5625C3.48633 27.6787 4.44336 28.6768 7.0957 31.3291C9.07812 33.3116 10.7666 34.9522 10.8486 34.9727C10.9307 34.9932 11.0674 34.9932 11.1562 34.9659C11.3408 34.9043 14.3896 31.9034 14.5332 31.6367C14.6836 31.3496 14.6494 31.1924 14.3555 30.878L14.0889 30.584L15.1621 29.5108L16.2354 28.4375L21.3965 28.4239L26.5576 28.4034L26.9678 28.2393C27.3369 28.0957 27.5557 27.9043 29.1963 26.2705C30.5566 24.917 31.0625 24.3701 31.1992 24.1035C32.1973 22.128 30.5703 19.8721 28.3623 20.1797C27.6104 20.2823 27.2822 20.501 25.9697 21.7862L24.7666 22.9688H23.6934C23.0986 22.9688 22.627 22.9483 22.6406 22.9141C23.0713 22.0801 23.0713 22.0664 23.0713 21.3282C23.0713 20.6651 23.0576 20.5762 22.8594 20.166C22.5859 19.585 22.1484 19.1475 21.5674 18.8604L21.0889 18.628L16.9531 18.6143C13.665 18.6006 12.7559 18.6211 12.5303 18.6895ZM21.0889 19.8516C21.6973 20.1319 22.0117 20.6309 22.0117 21.3145C22.0117 21.8067 21.7725 22.3262 21.417 22.5928C20.9521 22.9551 20.8018 22.9688 17.541 22.9688C14.3008 22.9756 14.3623 22.9688 14.2256 23.3311C14.1367 23.5567 14.2188 23.8028 14.4375 23.9532C14.5742 24.0489 15.1416 24.0625 19.9199 24.0625H25.2451L26.5508 22.7705C28.0205 21.3213 28.1846 21.2188 28.9092 21.2735C29.9756 21.3487 30.6523 22.3672 30.3174 23.3858C30.208 23.7207 30.0439 23.9053 28.6152 25.3477C27.7471 26.2295 26.8994 27.0293 26.7285 27.125L26.4209 27.3096L21.0889 27.3438C18.1562 27.3643 15.7432 27.3848 15.7295 27.3985C15.709 27.4053 15.1553 27.9522 14.4922 28.6084L13.2959 29.8047L10.5957 27.1045L7.89551 24.4043L10.083 22.2168C11.6826 20.6104 12.3594 19.9815 12.6055 19.8584L12.9473 19.6875H16.8438H20.7471L21.0889 19.8516ZM10.2197 28.3008L13.2959 31.377L12.1475 32.5186L11.0059 33.667L7.91602 30.5772L4.81934 27.4805L5.94727 26.3526C6.56934 25.7305 7.08887 25.2246 7.10938 25.2246C7.12988 25.2246 8.53125 26.6123 10.2197 28.3008Z" fill="#FA5F0B"/>
</g>
<defs>
<clipPath id="clip0_41_23">
<rect width="35" height="35" fill="white"/>
</clipPath>
</defs>
</svg>
