<svg width="35" height="35" viewBox="0 0 35 35" fill="none" xmlns="http://www.w3.org/2000/svg">
<path d="M28.5263 1.14838C27.453 1.53119 26.8856 2.37885 26.9472 3.51362C26.9813 4.1767 27.1727 4.60053 27.6307 5.03119C28.7929 6.15229 30.6522 5.82416 31.3563 4.38178C31.5204 4.04682 31.5477 3.91694 31.5477 3.38373C31.5477 2.8642 31.5204 2.70698 31.37 2.39252C30.871 1.33295 29.5858 0.772406 28.5263 1.14838ZM29.9481 2.03705C30.8026 2.48139 31.0282 3.63666 30.3993 4.3476C29.8456 4.98334 28.9296 5.06537 28.3075 4.53217C27.8768 4.16987 27.7333 3.83491 27.7675 3.27436C27.8016 2.67963 28.0341 2.31733 28.5673 2.03705C29.0526 1.78412 29.4628 1.78412 29.9481 2.03705Z" fill="#FA5F0B"/>
<path d="M15.21 2.94623C10.2334 3.45892 5.83794 6.52826 3.6231 11.0468C2.52935 13.2753 1.99614 15.9892 2.18071 18.3613C2.31743 20.0908 2.48149 20.7128 2.80962 20.7128C3.2061 20.7128 3.29497 20.5009 3.17192 19.8242C2.50884 16.1122 3.43852 12.2294 5.72173 9.17377C6.22075 8.51068 7.39653 7.28705 8.06645 6.74701C11.71 3.80756 16.5704 2.92572 21.0206 4.40228C22.0323 4.74408 23.3311 5.33197 23.1739 5.38666C23.1192 5.40716 22.7979 5.50287 22.4561 5.60541C21.9844 5.74213 21.8204 5.81732 21.7657 5.94037C21.6631 6.13861 21.7178 6.34369 21.9024 6.46673C22.0391 6.54877 22.169 6.52826 23.1807 6.25482C23.7959 6.08392 24.3565 5.9267 24.4249 5.90619C24.4932 5.88568 24.5889 5.79681 24.6436 5.71478C24.7393 5.57806 24.712 5.45502 24.4043 4.34076C24.2198 3.67084 24.0215 3.07611 23.9668 3.02142C23.8438 2.89838 23.5499 2.89154 23.4131 3.00775C23.2696 3.12396 23.2833 3.41107 23.461 4.0058C23.5362 4.28607 23.5909 4.52533 23.5704 4.54584C23.5499 4.56634 23.2149 4.42963 22.8252 4.24506C20.5557 3.15814 17.7666 2.67963 15.21 2.94623Z" fill="#FA5F0B"/>
<path d="M14.9502 5.91305C9.68652 6.76755 5.73535 10.8965 5.12695 16.167C4.9834 17.4248 5.09277 18.9902 5.40039 20.1933C5.47559 20.4941 5.53711 20.7539 5.53711 20.7812C5.53711 20.8086 5.4209 20.8564 5.28418 20.8838C4.91504 20.9521 4.26563 21.3144 4.0332 21.581C3.91699 21.7109 3.74609 21.9707 3.64355 22.1689C3.47266 22.4834 3.45215 22.5996 3.45215 23.1738C3.45215 23.9463 3.60254 24.3154 4.10156 24.8144C4.5459 25.2656 4.96973 25.4502 5.63965 25.4843C6.31641 25.5185 6.80176 25.3545 7.27344 24.9443L7.59473 24.664L7.875 24.9922C10.4385 27.9863 14.4854 29.4902 18.4229 28.9091C18.9834 28.8271 20.2891 28.4922 20.665 28.3349C20.9111 28.2324 20.9316 28.2392 21.3145 28.4306C21.9092 28.7314 22.5176 28.9091 23.2832 29.0048L23.96 29.0937L22.832 29.6474C21.2803 30.4199 20.1387 30.7822 18.5254 31.0078C17.6846 31.124 15.791 31.1377 15.0049 31.0351C14.1777 30.9257 13.3301 30.748 13.3301 30.6933C13.3301 30.666 13.5557 30.5088 13.8291 30.3515C14.0957 30.1875 14.376 30.0097 14.4443 29.955C14.6904 29.7431 14.5127 29.2578 14.1846 29.2578C14.0547 29.2578 12.4824 30.1533 12.0518 30.4677C11.9014 30.5771 11.8262 30.6865 11.8262 30.8027C11.8262 31.0488 13.0361 33.0791 13.2344 33.1679C13.3574 33.2226 13.4326 33.2158 13.5625 33.1338C13.8633 32.9355 13.8496 32.7851 13.4736 32.1494C13.2754 31.8281 13.1318 31.5547 13.1387 31.541C13.1523 31.5341 13.3438 31.5683 13.5693 31.623C14.834 31.917 16.9805 32.0195 18.3887 31.8554C20.0635 31.6572 21.7178 31.1513 23.2764 30.3652C23.9531 30.0302 25.1494 29.2715 25.6621 28.8545C25.8125 28.7382 25.9561 28.6494 25.9834 28.6562C26.0107 28.6699 26.79 29.7363 27.7197 31.0351C28.6426 32.334 29.4971 33.4824 29.6201 33.5849C29.7432 33.6875 29.9893 33.8173 30.1738 33.872C31.4385 34.248 32.7031 33.373 32.7988 32.0468C32.8604 31.206 32.8604 31.206 30.4404 28.7724L28.2939 26.6123L28.4922 26.2773C28.6016 26.0927 28.7451 25.7851 28.8203 25.6006C28.8887 25.4091 29.1006 24.999 29.2852 24.6777C30.1738 23.1328 30.7754 21.417 31.0762 19.5166C31.3018 18.1152 31.2061 15.1552 30.9258 14.7109C30.8506 14.6015 30.7617 14.5605 30.5908 14.5605C30.2354 14.5605 30.1738 14.7382 30.2764 15.5244C30.5908 17.9511 30.3242 20.1591 29.4492 22.4355C29.2373 22.9892 29.1211 23.1123 29.1211 22.7705C29.1211 22.292 28.6494 21.123 28.1982 20.5009C27.9932 20.2138 27.9727 20.1523 28.0273 19.9541C28.0684 19.831 28.1436 19.3935 28.1982 18.9902C28.458 17.1103 28.2051 14.9433 27.5147 13.2002C27.3848 12.872 27.2754 12.5781 27.2754 12.5507C27.2754 12.5302 28.7314 12.5097 30.5088 12.5097C33.5576 12.5097 33.7559 12.5029 33.8584 12.3867C33.9609 12.2773 33.9746 12.0586 33.9746 10.7119C33.9746 9.83688 33.9404 9.00973 33.8994 8.80466C33.667 7.71774 32.8535 6.82223 31.7803 6.48727C31.4111 6.37106 31.1309 6.35739 29.2578 6.35739C27.3848 6.35739 27.1045 6.37106 26.7354 6.48727C25.7373 6.79489 24.9648 7.56051 24.6777 8.52438C24.6299 8.68844 24.5752 8.81833 24.5615 8.81833C24.541 8.81833 24.3018 8.63376 24.0215 8.40133C22.6133 7.2529 20.8496 6.41891 18.9697 6.01559C18.0674 5.81735 15.8594 5.76266 14.9502 5.91305ZM16.2695 9.12594V11.6279L15.6406 11.5869C14.4648 11.5049 12.4277 11.2177 12.3252 11.1152C12.291 11.081 12.6533 10.2334 12.9746 9.6113C13.542 8.50387 14.3896 7.51266 15.1416 7.07516C15.4424 6.89743 16.0713 6.63766 16.2217 6.63083C16.249 6.63083 16.2695 7.75192 16.2695 9.12594ZM17.9717 6.95212C18.8945 7.39645 19.8037 8.42184 20.501 9.83005C20.8086 10.4453 21.0752 11.081 21.0342 11.1152C20.9248 11.2246 18.9697 11.498 17.7256 11.5869L17.0898 11.6279V9.12594V6.63083L17.2813 6.67184C17.3838 6.69235 17.6914 6.8154 17.9717 6.95212ZM13.5898 7.30075C12.8789 8.05954 12.3525 8.90719 11.8125 10.1513C11.5527 10.7392 11.457 10.8965 11.3682 10.8828C10.8623 10.7871 8.95508 10.0215 8.95508 9.90524C8.95508 9.8779 9.18066 9.65231 9.4541 9.39938C10.0488 8.84567 11.2588 8.02536 11.9697 7.6904C12.4551 7.46481 13.6992 6.9863 13.8359 6.97262C13.8701 6.97262 13.7539 7.12301 13.5898 7.30075ZM20.4395 7.29391C21.4717 7.67673 22.3672 8.16891 23.208 8.81149C23.666 9.16012 24.4043 9.83688 24.4043 9.91208C24.4043 10.0215 22.4561 10.8144 22.0254 10.8828C21.8887 10.9033 21.8408 10.8349 21.6426 10.3564C21.1436 9.13962 20.5215 8.10739 19.8516 7.38962C19.4004 6.89743 19.373 6.90426 20.4395 7.29391ZM28.2188 7.56735L28.376 7.96383L28.2324 9.40622L28.0889 10.8486L28.2598 11.2724L28.4307 11.6894H27.8838H27.3438V10.4111C27.3438 9.32419 27.3301 9.11911 27.2275 9.00973C27.0977 8.85934 26.8721 8.85251 26.6875 8.98239C26.5713 9.07126 26.5576 9.18747 26.5371 10.3838L26.5166 11.6894H25.9355H25.3545L25.375 10.2334C25.3955 8.59274 25.4297 8.46969 26.0039 7.87497C26.4688 7.38278 26.9199 7.19137 27.6172 7.18454L28.0615 7.1777L28.2188 7.56735ZM29.5313 7.20505C29.5313 7.35544 29.415 7.45114 29.251 7.45114C29.1416 7.45114 29.0527 7.43747 29.0527 7.4238C29.0527 7.41012 29.0322 7.3486 29.0117 7.28708C28.9775 7.19821 29.0254 7.1777 29.251 7.1777C29.4082 7.1777 29.5313 7.19137 29.5313 7.20505ZM31.6777 7.32126C32.1768 7.50583 32.6895 7.97751 32.9287 8.46286C33.1201 8.84567 33.1201 8.87985 33.1406 10.2675L33.168 11.6894H32.5459H31.9238V10.4111C31.9238 9.32419 31.9102 9.11911 31.8076 9.00973C31.6572 8.84567 31.4316 8.85251 31.2676 9.03024C31.1514 9.16012 31.1377 9.31051 31.1172 10.4316L31.0967 11.6894H30.5908H30.0781L30.2217 11.334C30.2969 11.1357 30.3721 10.958 30.3857 10.9375C30.4063 10.9101 30.3516 10.2265 30.2695 9.41305L30.126 7.93649L30.2832 7.55368L30.4336 7.1777H30.8711C31.1377 7.1777 31.4453 7.23239 31.6777 7.32126ZM29.333 8.3193C29.333 8.35348 29.3877 8.91403 29.4561 9.57028L29.5723 10.7666L29.415 11.1357C29.3262 11.334 29.2373 11.4912 29.2236 11.4775C29.21 11.4638 29.1416 11.2929 29.0664 11.1015C28.9297 10.7666 28.9297 10.7256 29.0322 9.59762C29.0869 8.96188 29.1484 8.40133 29.1621 8.35348C29.1895 8.26462 29.3262 8.23727 29.333 8.3193ZM9.03027 10.8965C9.38574 11.0605 10.0146 11.3134 10.4248 11.4502C10.8418 11.5937 11.1836 11.7168 11.1973 11.7236C11.2109 11.7373 11.1426 12.0654 11.0469 12.455C10.7803 13.5215 10.6025 14.6562 10.5137 15.9004L10.4316 17.0215H8.14844H5.86523L5.91309 16.5224C6.07031 14.8955 6.5625 13.3232 7.34863 11.997C7.73145 11.3476 8.26465 10.5957 8.33984 10.5957C8.36719 10.5957 8.67481 10.7324 9.03027 10.8965ZM24.541 11.5664C24.541 12.5097 24.541 12.5097 25.5459 12.5097H26.3252L26.5303 12.9677C26.9814 13.959 27.3506 15.3672 27.4463 16.4882L27.4941 17.0215H25.1973H22.9004V16.6591C22.9004 15.6474 22.6543 13.8154 22.3467 12.5644C22.2373 12.1064 22.1553 11.7304 22.1621 11.7236C22.1758 11.7168 22.4766 11.6074 22.832 11.4912C23.1875 11.375 23.6797 11.1836 23.9258 11.081C24.1719 10.9716 24.4111 10.8828 24.459 10.8759C24.5205 10.8691 24.541 11.0468 24.541 11.5664ZM13.6035 12.2021C14.1025 12.2773 15.8867 12.4414 16.2217 12.4414C16.249 12.4414 16.2695 13.4736 16.2695 14.7314V17.0215H13.7676H11.2588L11.3066 16.249C11.3955 14.8613 11.6416 13.3164 11.9629 12.1611L12.0313 11.9082L12.4961 12.0107C12.749 12.0586 13.248 12.1474 13.6035 12.2021ZM21.6289 13.0566C21.834 14 21.998 15.1757 22.0527 16.2353L22.1006 17.0215H19.5986H17.0898V14.7314C17.0898 13.4736 17.1104 12.4414 17.1445 12.4414C17.8623 12.4414 20.0293 12.1884 20.8838 12.0039L21.2939 11.915L21.3691 12.0927C21.417 12.1884 21.5264 12.6259 21.6289 13.0566ZM10.5137 18.915C10.6094 20.1591 10.8008 21.4033 11.0469 22.374C11.1426 22.75 11.1904 23.0781 11.1631 23.1054C11.1357 23.1328 10.7734 23.2695 10.3564 23.4062C9.94629 23.5498 9.31738 23.7959 8.96191 23.9668L8.32617 24.2675L8.19629 24.1103C8.0459 23.9257 8.05273 23.9599 8.06641 23.2763C8.08691 22.3056 7.61523 21.4853 6.80176 21.0888L6.43945 20.9111L6.28906 20.3642C6.10449 19.6806 5.97461 18.9697 5.91309 18.334L5.86523 17.8418H8.14844H10.4316L10.5137 18.915ZM16.2695 20.1181V22.4013L15.4355 22.4423C14.54 22.4902 13.3301 22.6406 12.5508 22.8047C12.168 22.8867 12.0654 22.8867 12.0244 22.8183C11.8125 22.4765 11.3955 20.0293 11.3066 18.6074L11.2588 17.8418H13.7676H16.2695V20.1181ZM22.0801 18.1357V18.4297L21.376 18.7851C20.043 19.4414 19.0723 20.5761 18.6211 21.9775C18.498 22.374 18.4434 22.456 18.3271 22.4492C18.2451 22.4492 17.9375 22.4423 17.6367 22.4355L17.0898 22.4218V20.1318V17.8418H19.585H22.0801V18.1357ZM27.4531 18.2998C27.3711 19.1543 27.3232 19.414 27.2686 19.414C27.2344 19.414 27.0635 19.3115 26.8857 19.1816C25.9492 18.5185 25.0332 18.2382 23.7754 18.2246L22.9004 18.2177V18.0263V17.8418H25.1973H27.501L27.4531 18.2998ZM24.6572 19.1064C25.375 19.2431 26.2979 19.7011 26.8447 20.2002C27.3984 20.6992 27.8975 21.4511 28.1367 22.1621C28.3145 22.6748 28.335 22.8115 28.335 23.6181C28.3281 24.3974 28.3076 24.5752 28.1436 25.0673C27.7744 26.1611 26.9404 27.1455 25.915 27.6787C25.1768 28.0615 24.6504 28.1914 23.7891 28.1914C22.4834 28.1914 21.4785 27.7675 20.542 26.831C19.626 25.915 19.209 24.9101 19.209 23.6181C19.209 22.791 19.3252 22.3056 19.6943 21.5468C20.1797 20.5556 21.123 19.708 22.1963 19.3047C23.0029 19.0039 23.7754 18.9355 24.6572 19.1064ZM6.30957 21.7588C6.89746 22.0048 7.24609 22.5312 7.24609 23.1738C7.24609 23.6386 7.0752 24.0283 6.74707 24.3154C5.85156 25.1015 4.36816 24.541 4.25195 23.3789C4.16309 22.4287 4.81934 21.6699 5.72852 21.6699C5.92676 21.6699 6.18652 21.7109 6.30957 21.7588ZM16.2695 25.7099V28.1777L16.0508 28.1367C15.251 27.9795 14.3623 27.2959 13.5967 26.25C13.0977 25.5732 12.25 23.8164 12.3594 23.707C12.4893 23.5771 14.7861 23.2695 15.7432 23.249L16.2695 23.2422V25.7099ZM18.2383 23.2832C18.375 23.3242 18.3887 23.3652 18.3887 23.7822C18.3887 24.6504 18.6895 25.6963 19.1406 26.4072C19.3936 26.8105 19.373 26.8652 18.7373 27.3779C18.2656 27.7607 17.6982 28.0615 17.3086 28.1367L17.0898 28.1845V25.7099V23.2422H17.5889C17.8555 23.2422 18.1494 23.2627 18.2383 23.2832ZM11.6143 24.1992C11.874 25.0673 12.9131 26.8105 13.6309 27.5761C13.877 27.8359 13.877 27.8359 13.6855 27.7881C13.2686 27.6855 12.168 27.248 11.6895 26.9882C10.9307 26.5849 10.1582 26.0517 9.47461 25.4502L8.85938 24.9238L9.44043 24.6504C10.042 24.3701 11.2314 23.9326 11.4229 23.9326C11.4912 23.9257 11.5596 24.0283 11.6143 24.1992ZM28.376 28.0957C28.3008 28.1504 28.0273 28.3759 27.7607 28.6015C27.4873 28.8203 27.2617 28.9912 27.2549 28.9775C27.2412 28.9638 27.1113 28.7861 26.9678 28.581L26.7012 28.2119L26.9746 28C27.1182 27.8838 27.3643 27.6718 27.5147 27.5351L27.7881 27.2822L28.1504 27.6377C28.4922 27.9795 28.5059 27.9931 28.376 28.0957ZM20.0977 27.624C20.0977 27.6513 20.0293 27.6992 19.9473 27.7197C19.5029 27.8496 19.5029 27.8496 19.7148 27.624C19.8721 27.4668 19.9336 27.4326 20.0088 27.4873C20.0566 27.5283 20.0977 27.5898 20.0977 27.624ZM31.7939 31.3359C32.4297 32.1904 31.4316 33.4345 30.3926 33.0859C30.1738 33.0175 29.9961 32.792 28.957 31.3427L27.7607 29.6748L28.417 29.1211L29.0801 28.5673L30.3379 29.8183C31.0283 30.5088 31.6846 31.1923 31.7939 31.3359Z" fill="#FA5F0B"/>
<path d="M22.8046 19.7285C21.5058 20.043 20.3163 21.1846 19.9335 22.4834C19.161 25.1016 21.2528 27.7539 23.9599 27.5967C24.7665 27.5488 25.3749 27.3506 26.0106 26.9267C26.8104 26.3867 27.4052 25.5596 27.6513 24.6299C27.7948 24.0898 27.7948 23.0713 27.6513 22.5791C27.33 21.458 26.5507 20.5146 25.5595 20.043C25.245 19.8926 24.8212 19.7353 24.6229 19.6943C24.1376 19.5918 23.2968 19.6123 22.8046 19.7285ZM25.0536 20.6992C25.6483 20.9795 25.997 21.2598 26.3593 21.7519C27.3573 23.1123 27.0702 25.0947 25.7235 26.1269C23.789 27.5967 21.0409 26.4961 20.6308 24.0898C20.371 22.5449 21.4032 20.9795 22.9686 20.5283C23.1532 20.4736 23.5292 20.4463 23.9325 20.46C24.4999 20.4805 24.6571 20.5146 25.0536 20.6992Z" fill="#FA5F0B"/>
<path d="M3.17871 26.3046C2.65918 26.4824 2.25586 26.7421 1.86621 27.1523C1.13477 27.9316 1.02539 28.3622 1.02539 30.4677C1.02539 31.9716 1.03223 32.0673 1.16211 32.1972C1.29883 32.3339 1.3877 32.3339 5.7627 32.3339C10.0078 32.3339 10.2402 32.3271 10.3428 32.2109C10.4453 32.1015 10.459 31.8759 10.459 30.4472C10.459 28.6699 10.418 28.3759 10.0762 27.747C9.70703 27.0703 9.10547 26.5781 8.34668 26.3183C7.96387 26.1953 7.77246 26.1816 5.72852 26.1816C3.81445 26.1884 3.47266 26.2021 3.17871 26.3046ZM4.7168 27.3574L4.87402 27.7197L4.73047 29.1894L4.59375 30.6523L4.75098 31.0829L4.91504 31.5136H4.40918H3.90332L3.88281 30.2079C3.8623 29.0117 3.84863 28.8954 3.73242 28.8066C3.55469 28.6835 3.31543 28.6835 3.18555 28.8203C3.09668 28.9091 3.07617 29.1347 3.07617 30.2216V31.5136H2.4541H1.83887L1.85938 30.0917C1.87988 28.7724 1.89355 28.6494 2.04395 28.3144C2.24219 27.8769 2.85742 27.289 3.28809 27.1249C3.45898 27.0634 3.80078 27.0087 4.07422 27.0087L4.56641 27.0019L4.7168 27.3574ZM6.01562 27.0292C6.01562 27.1796 5.89941 27.2753 5.73535 27.2753C5.62598 27.2753 5.53711 27.2617 5.53711 27.248C5.53711 27.2343 5.5166 27.1728 5.49609 27.1113C5.46191 27.0224 5.50977 27.0019 5.73535 27.0019C5.89258 27.0019 6.01562 27.0156 6.01562 27.0292ZM8.36719 27.2001C8.79785 27.412 9.17383 27.788 9.41309 28.246C9.60449 28.6015 9.60449 28.622 9.625 30.0576L9.64551 31.5136H9.06445H8.47656V30.2626C8.47656 28.8681 8.43555 28.7109 8.06641 28.7109C7.67676 28.7109 7.65625 28.7929 7.65625 30.2216V31.5136H7.11621H6.56934L6.74023 31.0966L6.91113 30.6796L6.76758 29.2031L6.62402 27.7333L6.78125 27.3574L6.93164 26.9882L7.48535 27.0156C7.88867 27.0292 8.12109 27.0839 8.36719 27.2001ZM5.96094 29.3466L6.07715 30.5566L5.91309 30.9462L5.75586 31.3427L5.60547 31.0009C5.43457 30.6249 5.43457 30.4814 5.53711 29.3261C5.63965 28.2392 5.66699 28.082 5.7627 28.1161C5.81738 28.1298 5.88574 28.5673 5.96094 29.3466Z" fill="#FA5F0B"/>
</svg>
