<svg width="35" height="35" viewBox="0 0 35 35" fill="none" xmlns="http://www.w3.org/2000/svg">
<path d="M12.366 0.191406C12.0994 0.328125 11.9421 0.47168 11.7918 0.717773L11.5867 1.0459L11.5662 2.2832C11.5525 3.0625 11.573 3.61621 11.6209 3.78027C11.7166 4.1084 12.0447 4.47754 12.4002 4.66895L12.6804 4.81934H17.4998C22.3054 4.81934 22.3191 4.81934 22.5925 4.66895C22.7429 4.59375 22.948 4.43652 23.0505 4.32715C23.3992 3.95801 23.447 3.73926 23.447 2.40625C23.447 1.2373 23.4402 1.17578 23.2761 0.84082C23.0984 0.492188 22.7839 0.21875 22.4011 0.0751953C22.2712 0.0273438 20.6306 0 17.4656 0H12.7283L12.366 0.191406ZM22.2439 1.16895L22.4216 1.30566V2.39258C22.4216 3.34961 22.408 3.48633 22.2918 3.62988L22.1619 3.79395H17.4998H12.8377L12.7078 3.62988C12.5916 3.48633 12.5779 3.34961 12.5779 2.39258V1.30566L12.7556 1.16895C12.9334 1.02539 12.988 1.02539 17.4998 1.02539C22.0115 1.02539 22.0662 1.02539 22.2439 1.16895Z" fill="#FA5F0B"/>
<path d="M5.87891 2.03027C5.29102 2.23535 4.9082 2.57715 4.57324 3.21289L4.40918 3.52051V18.4229V33.3252L4.57324 33.6807C4.77148 34.1318 5.33203 34.6582 5.77637 34.8359C6.11133 34.959 6.42578 34.9658 17.5 34.9658C28.5742 34.9658 28.8887 34.959 29.2236 34.8359C29.668 34.6582 30.2285 34.1318 30.4268 33.6807L30.5908 33.3252V18.4229V3.52051L30.3994 3.1582C30.167 2.71387 29.7705 2.32422 29.3398 2.1123C29.0322 1.95508 28.957 1.94824 27.0908 1.92773L25.1562 1.90723L24.9854 2.07812C24.7803 2.2832 24.7666 2.52246 24.9443 2.74121C25.0742 2.90527 25.0811 2.90527 26.9473 2.93945C28.1846 2.95996 28.8613 3.00098 28.9502 3.05566C29.1621 3.17871 29.4492 3.5 29.5244 3.71191C29.5791 3.84863 29.5996 8.34668 29.5996 18.4775C29.5996 32.2178 29.5928 33.0654 29.4766 33.2842C29.415 33.4141 29.2441 33.6123 29.1006 33.7285L28.834 33.9404L17.6846 33.9609C11.5459 33.9678 6.42578 33.9609 6.30273 33.9404C6.0293 33.8926 5.6123 33.5371 5.49609 33.2432C5.41406 33.0586 5.40039 30.5361 5.40039 18.4639C5.40039 8.34668 5.4209 3.84863 5.47559 3.71191C5.55078 3.5 5.83789 3.17871 6.0498 3.05566C6.13867 3.00098 6.81543 2.95996 8.05273 2.93945C9.91895 2.90527 9.92578 2.90527 10.0557 2.74121C10.2334 2.52246 10.2197 2.2832 10.0146 2.08496L9.85059 1.91406H8.01855C6.53516 1.9209 6.125 1.94141 5.87891 2.03027Z" fill="#FA5F0B"/>
<path d="M9.33106 11.5869L9.16017 11.751V18.0469C9.16017 24.8486 9.15333 24.6709 9.51563 24.7734C9.72071 24.8281 25.2793 24.8281 25.4844 24.7734C25.8467 24.6709 25.8399 24.7734 25.8399 18.9561C25.8399 12.9473 25.8672 13.2686 25.3682 12.9404C25.1494 12.7969 25.0606 12.7832 24.1035 12.7832C22.9277 12.7832 22.7022 12.8516 22.4766 13.2686C22.3672 13.4668 22.3535 13.6719 22.3535 14.8477C22.3535 16.1123 22.3604 16.208 22.4902 16.3379C22.7158 16.5635 23.0029 16.543 23.2217 16.2969C23.3721 16.1328 23.3789 16.0713 23.3789 14.9639V13.8086H24.0967H24.8145V18.7988V23.7891H24.0967H23.3789V21.0273V18.2588L23.2217 18.0879C23.0029 17.8418 22.7158 17.8213 22.4902 18.0469C22.3604 18.1768 22.3535 18.2725 22.3535 20.9863V23.7891H21.3281H20.3027V20.5488V17.3154L20.1455 17.083C19.8652 16.6592 19.6533 16.6045 18.4775 16.625C17.5547 16.6455 17.418 16.6592 17.2471 16.7891C16.8096 17.1104 16.8164 17.0693 16.8164 20.5898V23.7891H15.9004H14.9844L14.957 22.333C14.9365 20.7061 14.8887 20.542 14.4238 20.2959C14.0752 20.1045 12.3115 20.1045 11.9629 20.2959C11.4981 20.542 11.4502 20.7061 11.4297 22.333L11.4024 23.7891H10.794H10.1856V17.7529V11.71L10.0283 11.5664C9.81642 11.3682 9.53614 11.375 9.33106 11.5869ZM19.2774 20.7129V23.7891H18.5596H17.8418V20.7129V17.6367H18.5596H19.2774V20.7129ZM13.9111 22.4902V23.7549H13.1934H12.4756L12.4551 22.5586C12.4483 21.9023 12.4551 21.3281 12.4756 21.2734C12.4961 21.2051 12.6738 21.1914 13.207 21.2051L13.9111 21.2256V22.4902Z" fill="#FA5F0B"/>
<path d="M9.5293 26.7969C9.35156 26.8652 9.16016 27.125 9.16016 27.2822C9.16016 27.3438 9.22168 27.4736 9.30371 27.5762L9.44043 27.7539H17.5H25.5596L25.6963 27.5762C25.8809 27.3369 25.874 27.1865 25.6758 26.9541L25.5117 26.7627L17.5889 26.749C13.2139 26.7422 9.60449 26.7627 9.5293 26.7969Z" fill="#FA5F0B"/>
<path d="M9.30371 29.2988C9.22168 29.4014 9.16016 29.5244 9.16016 29.5723C9.16016 29.75 9.31738 29.9961 9.48145 30.0713C9.71387 30.1807 25.2861 30.1807 25.5186 30.0713C25.6826 29.9961 25.8398 29.75 25.8398 29.5723C25.8398 29.5244 25.7783 29.4014 25.6963 29.2988L25.5596 29.1211H17.5H9.44043L9.30371 29.2988Z" fill="#FA5F0B"/>
</svg>
