<svg width="54" height="100" viewBox="0 0 54 100" fill="none" xmlns="http://www.w3.org/2000/svg">
<path d="M0.172974 41.957C0.172974 27.7366 0.172974 13.8745 0.172974 0C26.4641 1.24784 48.9251 15.9254 53.8177 41.4752C49.3699 42.7354 9.79739 43.1554 0.172974 41.957Z" fill="#EC641A"/>
<path d="M0 100C0 84.4823 0 69.5947 0 54.1882C7.01754 54.0647 13.7015 53.7435 20.8797 54.5465C20.8797 67.7044 20.9044 80.4176 20.8673 93.1183C20.855 96.3429 18.6558 97.7761 15.9254 98.4309C10.934 99.617 5.83148 99.9505 0 100Z" fill="#A7411B"/>
<path d="M32.5426 87.7069C32.5426 77.0571 32.5426 66.4319 32.5426 55.0407C39.5478 54.2995 46.5653 54.8801 53.5087 54.6948C54.8925 66.3825 41.5863 87.1139 32.5426 87.7069Z" fill="#F4883F"/>
</svg>
