<svg width="91" height="40" viewBox="0 0 91 40" fill="none" xmlns="http://www.w3.org/2000/svg">
<g clip-path="url(#clip0_18_2)">
<path d="M0.0692139 16.7828C0.0692139 11.0946 0.0692139 5.54979 0.0692139 0C10.5856 0.499135 19.5701 6.37015 21.5271 16.5901C19.748 17.0941 3.91898 17.2622 0.0692139 16.7828Z" fill="white"/>
<path d="M0 40C0 33.7929 0 27.8379 0 21.6753C2.80702 21.6259 5.4806 21.4974 8.35187 21.8186C8.35187 27.0818 8.36175 32.167 8.34692 37.2473C8.34198 38.5372 7.46232 39.1104 6.37015 39.3724C4.37361 39.8468 2.33259 39.9802 0 40Z" fill="white"/>
<path d="M13.017 35.0828C13.017 30.8228 13.017 26.5728 13.017 22.0163C15.8191 21.7198 18.6261 21.9521 21.4035 21.8779C21.957 26.553 16.6345 34.8456 13.017 35.0828Z" fill="white"/>
<path d="M46.9484 20.1581C46.9484 20.934 46.9237 21.611 46.8693 22.1843C46.8149 22.7576 46.7062 23.2468 46.5332 23.6471C46.3603 24.0474 46.1231 24.3736 45.8216 24.6256C45.5201 24.8777 45.1198 25.0704 44.6158 25.2088C44.1166 25.3471 43.5088 25.441 42.7922 25.4954C42.0756 25.5498 41.2157 25.5745 40.2175 25.5745H33.2493V14.4255H40.2175C41.705 14.4255 42.891 14.4798 43.7806 14.5935C44.6701 14.7072 45.3472 14.9493 45.8117 15.3249C46.2763 15.7005 46.5827 16.2441 46.7309 16.9557C46.8742 17.6674 46.9484 18.6311 46.9484 19.8418V20.1581ZM40.1087 24.3291C41.3492 24.3291 42.3227 24.2846 43.0344 24.2006C43.746 24.1166 44.2797 23.9288 44.6355 23.6471C44.9914 23.3654 45.2137 22.9404 45.3076 22.377C45.4015 21.8137 45.446 21.0575 45.446 20.1087V19.911C45.446 18.9325 45.4015 18.1665 45.3076 17.6031C45.2137 17.0398 44.9864 16.6148 44.6257 16.3232C44.2649 16.0316 43.7262 15.8488 43.0146 15.7796C42.3029 15.7054 41.3343 15.6708 40.1087 15.6708H34.7517V24.3291H40.1087Z" fill="white"/>
<path d="M60.4299 25.5745H49.4193V14.4255H60.3509V15.6708H50.9217V19.229H59.9357V20.4151H50.9217V24.3291H60.4299V25.5745Z" fill="white"/>
<path d="M75.7499 25.5745H74.1092L72.765 23.1233H64.087L62.723 25.5745H61.1021L67.5463 14.4255H69.5033L75.7499 25.5745ZM72.1522 21.9965L68.594 15.5127H68.4359L64.7393 21.9965H72.1522Z" fill="white"/>
<path d="M90.7734 25.5745H88.4062L78.7744 15.7104H78.6756V25.5745H77.1732V14.4255H79.5453L89.2118 24.2698H89.2711V14.4255H90.7734V25.5745Z" fill="white"/>
</g>
<defs>
<clipPath id="clip0_18_2">
<rect width="90.7734" height="40" fill="white"/>
</clipPath>
</defs>
</svg>
